<svg id="Layer_1" data-name="Layer 1" xmlns="http://www.w3.org/2000/svg" xmlns:xlink="http://www.w3.org/1999/xlink" viewBox="0 0 46.12 45.16"><defs><style>.cls-1{fill:url(#linear-gradient);}.cls-2{fill:url(#linear-gradient-2);}</style><linearGradient id="linear-gradient" x1="1.94" y1="25" x2="48.06" y2="25" gradientUnits="userSpaceOnUse"><stop offset="0" stop-color="#ef4723"/><stop offset="1" stop-color="#f47721"/></linearGradient><linearGradient id="linear-gradient-2" x1="22.98" y1="13.07" x2="25.24" y2="13.07" xlink:href="#linear-gradient"/></defs><path class="cls-1" d="M18.83,39c2.29-4.21,9.15-7.07,9.93-15.29a2.82,2.82,0,0,0-3-3.43c-3.64-.15-10.15,0-10.15,0s-1.21,0,0-1.15A31.29,31.29,0,0,1,19.12,17a1.75,1.75,0,0,1,1.28-1.79s-.28-4.14,6-5.28V6.1A14.75,14.75,0,0,1,34.7,8.67l-.72.5.72.57-3.36,1.79s2,2.07,2.93,9.07S35.55,31,38,33.76s3.72,3.93,4.08,6.5a4.16,4.16,0,0,0,.13.59,23.06,23.06,0,1,0-23.78,6.73C17.86,45.12,17.45,41.52,18.83,39Z" transform="translate(-1.94 -2.42)"/><circle class="cls-2" cx="24.11" cy="13.07" r="1.13"/></svg>