<svg id="Layer_1" data-name="Layer 1" xmlns="http://www.w3.org/2000/svg" xmlns:xlink="http://www.w3.org/1999/xlink" viewBox="0 0 66.02 66.02"><defs><style>.cls-1{fill:url(#linear-gradient);}.cls-2{fill:#fff;}</style><linearGradient id="linear-gradient" y1="33.01" x2="66.02" y2="33.01" gradientUnits="userSpaceOnUse"><stop offset="0" stop-color="#ef4923"/><stop offset="1" stop-color="#f47522"/></linearGradient></defs><circle class="cls-1" cx="33.01" cy="33.01" r="33.01"/><path class="cls-2" d="M50.62,52.27c-.22-1.47-.41-2.94-.61-4.42,0-.24,0-.49-.06-.73-.21-1.46-.42-2.91-.62-4.37-.14-1-.24-2.08-.41-3.11-.12-.74-.33-1.46-.49-2.2s-.29-1.39-.47-2.08-.32-1.18-.5-1.76-.31-1-.46-1.44a22.81,22.81,0,0,0-3.29-7.07,1.45,1.45,0,0,1-.24-.46.43.43,0,0,1,.14-.37c1.55-.81,3.12-1.61,4.68-2.41.61-.32,1.21-.68,1.89-1.06l-.89-.64c-.44-.3-.4-.69.07-.94.27-.15.51-.34.86-.57-.84-.5-1.6-1-2.41-1.41-1.08-.56-2.18-1.08-3.31-1.55a21.73,21.73,0,0,0-2.36-.78,19.74,19.74,0,0,0-2-.58c-.87-.19-1.76-.31-2.64-.45l-2.16-.35h-1.7q0,3.68,0,7.35c0,.39-.07.63-.5.72-.83.18-1.66.39-2.49.61a11.7,11.7,0,0,0-1.19.36,16.92,16.92,0,0,0-5.17,3,8.75,8.75,0,0,0-2.58,3.79c-.31.93-.43,1.92-.68,2.88a.9.9,0,0,1-.44.52,3,3,0,0,0-1.91,1.93c-.11.41-.18.84-.29,1.25a.72.72,0,0,1-.23.43c-1,.58-2.13,1.12-3.17,1.73-1.3.77-2.59,1.56-3.84,2.42a6.64,6.64,0,0,0-1.12,1.28v.53s14.78-2.84,27,.56a21,21,0,0,1,9.16,4.45s0,0,0,0A20,20,0,0,1,50.87,53,4.13,4.13,0,0,1,50.62,52.27ZM32.56,35.46a2.64,2.64,0,0,1,.12-5.28,2.75,2.75,0,0,1,2.62,2.69A2.71,2.71,0,0,1,32.56,35.46Z" transform="translate(-1.99 -1.99)"/></svg>