<svg id="Layer_1" data-name="Layer 1" xmlns="http://www.w3.org/2000/svg" xmlns:xlink="http://www.w3.org/1999/xlink" viewBox="0 0 569.24 192.33"><defs><style>.cls-1{fill:#f47721;}.cls-2{fill:url(#linear-gradient);}.cls-3{fill:#fff;}</style><linearGradient id="linear-gradient" y1="96.17" x2="192.33" y2="96.17" gradientUnits="userSpaceOnUse"><stop offset="0" stop-color="#ef4923"/><stop offset="1" stop-color="#f47522"/></linearGradient></defs><path class="cls-1" d="M308.19,263l9.73-58.26H334.1q8.61,0,13.46,2.79a21.51,21.51,0,0,1,8,8.6,29.15,29.15,0,0,1,3.18,14.17q0,11.19-4.65,18.93T344,260q-5.44,3-14.32,3Zm8.09-5.94,11.7.09a29.54,29.54,0,0,0,9.82-1.32,17.85,17.85,0,0,0,6.64-4.4,24.35,24.35,0,0,0,5.11-8.9,37.65,37.65,0,0,0,2.09-12.78,25.77,25.77,0,0,0-2.12-10.87,13.6,13.6,0,0,0-6-6.63q-3.88-2.06-10.35-2.05l-9.11.08Z" transform="translate(-8.2 -85.25)"/><path class="cls-1" d="M394.79,263H388c0-.88,0-1.61,0-2.18a24.37,24.37,0,0,1,.77-6.27q-6.54,9.65-16.22,9.64a13.77,13.77,0,0,1-9.93-3.7,12.38,12.38,0,0,1-3.86-9.3q0-6.26,5.55-10.69t20.7-4.44q1.36,0,6.53.26a28.69,28.69,0,0,0,.47-4.52q0-8.21-9.94-8.2-8.76,0-12.51,7.3l-6.32-2.69q5.12-9.81,18.38-9.82a22,22,0,0,1,12.28,3.23,10.24,10.24,0,0,1,4.95,9.1q0,2.4-3.29,22.45a57.5,57.5,0,0,0-.86,8C394.66,261.41,394.7,262,394.79,263Zm-4.16-21.77q-3.08-.25-5.88-.26-18.64,0-18.65,10.5a6.92,6.92,0,0,0,2,5.21,7.73,7.73,0,0,0,5.64,2q5.7,0,10.62-4.9A22.68,22.68,0,0,0,390.63,241.22Z" transform="translate(-8.2 -85.25)"/><path class="cls-1" d="M416.69,224.91l-4,23.43a38.71,38.71,0,0,0-.69,5.38q0,4.79,5.47,4.79c1.28,0,3.25-.15,5.9-.43l-.68,5.33-1.24.13c-2.36.26-4.1.39-5.21.39q-10.75,0-10.75-9.52a63.78,63.78,0,0,1,1.11-9l3.44-20.53h-6.6l.89-5.2h6.76l1.69-10.46,6.54-.6-1.79,11.06h9.81l-.9,5.2Z" transform="translate(-8.2 -85.25)"/><path class="cls-1" d="M460.68,263h-6.79c0-.88,0-1.61,0-2.18a24.82,24.82,0,0,1,.77-6.27q-6.53,9.65-16.22,9.64a13.73,13.73,0,0,1-9.92-3.7,12.35,12.35,0,0,1-3.87-9.3q0-6.26,5.55-10.69t20.7-4.44q1.36,0,6.53.26a27.53,27.53,0,0,0,.47-4.52q0-8.21-9.94-8.2-8.75,0-12.51,7.3l-6.31-2.69q5.11-9.81,18.37-9.82a22,22,0,0,1,12.28,3.23,10.24,10.24,0,0,1,4.95,9.1q0,2.4-3.29,22.45a57.5,57.5,0,0,0-.86,8C460.55,261.41,460.6,262,460.68,263Zm-4.16-21.77q-3.06-.25-5.88-.26Q432,241,432,251.46a6.91,6.91,0,0,0,2,5.21,7.76,7.76,0,0,0,5.64,2q5.7,0,10.62-4.9A22.68,22.68,0,0,0,456.52,241.22Z" transform="translate(-8.2 -85.25)"/><path class="cls-1" d="M244.21,170.94l-5,29.86H215.56l13.59-81.37H256a83.39,83.39,0,0,1,13.8.81,24.54,24.54,0,0,1,8.94,3.87,22,22,0,0,1,7.33,8.23,23.38,23.38,0,0,1,2.71,11.06,27.67,27.67,0,0,1-7.44,19.49q-7.45,8.06-21.33,8.05Zm2.92-17.41h5.61q12.84,0,12.83-8.67,0-7.79-10.73-7.78h-5Z" transform="translate(-8.2 -85.25)"/><path class="cls-1" d="M321.73,184.17H300l-7.6,16.63H272.18l37.67-81.37h25.53L348,200.8H324Zm-1.45-16.81L317,143.82l-10.72,23.54Z" transform="translate(-8.2 -85.25)"/><path class="cls-1" d="M385.5,202.89a36.43,36.43,0,0,1-25-9.45q-10.6-9.45-10.61-27.09,0-20.44,11.86-34.73t31-14.27q15.33,0,25.16,10t9.83,26.14q0,20.63-11.68,35T385.5,202.89Zm.18-19a10.59,10.59,0,0,0,9.6-5.33q3.27-5.34,5.18-15.65T402.37,149q0-6.25-2.89-9.48a9.82,9.82,0,0,0-7.66-3.22q-9.12,0-12.82,12.7a81.84,81.84,0,0,0-3.69,22.48Q375.31,183.93,385.68,183.93Z" transform="translate(-8.2 -85.25)"/><path class="cls-1" d="M508.17,119.43,494.58,200.8H476.5l-15.61-31.24q-6.37-12.81-8.06-20.27c.08,1.2.12,2.13.12,2.81a58.35,58.35,0,0,1-.89,8.82l-6.68,39.88H425.55l13.59-81.37h21.92L470,138.27q9.3,19.56,12.1,28.92c-.12-1.64-.18-2.85-.18-3.64a100.87,100.87,0,0,1,1.61-13.24l5.18-30.88Z" transform="translate(-8.2 -85.25)"/><path class="cls-1" d="M577.44,138.33l-20.93,5.31a9,9,0,0,0-4.47-5.73,15.33,15.33,0,0,0-7.87-2.08q-8,0-8,5.36a4.25,4.25,0,0,0,1.13,3c.75.84,2.88,1.87,6.37,3.11l12.93,4.61a32.31,32.31,0,0,1,9.42,5.28,21.44,21.44,0,0,1,6.27,7.63,20.91,20.91,0,0,1,1.91,8.84A25.34,25.34,0,0,1,564.47,194q-9.69,8.06-25.84,8.05-13.83,0-24.11-5.61a30.12,30.12,0,0,1-14.34-17.11l23.49-4.59q3,8.66,15,8.65,5,0,7.24-1.82a5.27,5.27,0,0,0,2.24-4.14,4.2,4.2,0,0,0-.87-2.63,5.61,5.61,0,0,0-1.85-1.64q-1-.49-9.26-3.56a140.14,140.14,0,0,1-15.71-6.54,20.11,20.11,0,0,1-7.51-7.18,20.48,20.48,0,0,1-3-11.2,24.91,24.91,0,0,1,8.19-18.85q8.21-7.73,25.07-7.72,12.87,0,22.06,5.43A26,26,0,0,1,577.44,138.33Z" transform="translate(-8.2 -85.25)"/><circle class="cls-2" cx="96.17" cy="96.17" r="96.17"/><path class="cls-3" d="M149.88,231.73c-.65-4.28-1.2-8.57-1.79-12.88-.09-.7-.09-1.42-.18-2.13-.6-4.25-1.21-8.48-1.8-12.73-.42-3-.7-6.06-1.2-9.06-.36-2.15-1-4.26-1.44-6.39s-.84-4.07-1.35-6.08c-.42-1.73-.94-3.42-1.45-5.12-.42-1.39-.92-2.77-1.34-4.19-2.24-7.3-5-14.37-9.59-20.6a3.54,3.54,0,0,1-.69-1.35,1.25,1.25,0,0,1,.39-1.07c4.53-2.37,9.09-4.68,13.63-7,1.78-.94,3.52-2,5.5-3.08L146,138.16c-1.26-.87-1.14-2,.21-2.73.79-.44,1.5-1,2.5-1.68-2.44-1.46-4.66-2.9-7-4.1-3.15-1.62-6.35-3.15-9.62-4.52-2.22-.94-4.58-1.56-6.89-2.28-1.89-.6-3.76-1.26-5.68-1.67-2.54-.55-5.12-.91-7.69-1.33-2.1-.35-4.2-.68-6.3-1h-4.94c0,7.13,0,14.28,0,21.42,0,1.12-.21,1.81-1.45,2.09-2.44.52-4.84,1.15-7.25,1.78a31.09,31.09,0,0,0-3.48,1.05c-5.42,2.22-10.7,4.73-15.07,8.72a25.58,25.58,0,0,0-7.52,11c-.89,2.73-1.25,5.61-2,8.4a2.56,2.56,0,0,1-1.27,1.5C60,176,57.77,177.51,57,180.45c-.32,1.2-.52,2.44-.83,3.65a2.06,2.06,0,0,1-.68,1.24c-3.06,1.71-6.21,3.26-9.23,5-3.79,2.24-7.56,4.57-11.19,7.07-1.31.9-2.18,2.45-3.26,3.71v1.54s43-8.26,78.55,1.64a60.93,60.93,0,0,1,26.68,13,.44.44,0,0,0,.11.09,58.08,58.08,0,0,1,13.45,16.5A10.8,10.8,0,0,1,149.88,231.73Zm-52.62-49c-4.2-.34-7.2-3.18-7.2-7.59-.69-4.55,4.1-7.94,7.55-7.77a8,8,0,0,1,7.64,7.83C105.31,178.72,101.72,183.1,97.26,182.74Z" transform="translate(-8.2 -85.25)"/></svg>